# xmcd CD database file
#
# Track frame offsets:
#	150
#	19648
#	48045
#	66484
#	89750
#	115824
#	145831
#	169829
#	189801
#	225278
#
# Disc length: 3619 seconds
#
# Revision: 0
# Processed by: cddbd v1.5.2PL0 Copyright (c) Steve Scherf et al.
# Submitted via: CDex 1.70beta2
#
DISCID=7a0e210a
DTITLE=Christoph Stiefel and Lisette Spinnler - Bima Sakti
DYEAR=2010
DGENRE=Jazz
TTITLE0=Jolene
TTITLE1=Astracan Café
TTITLE2=Marine
TTITLE3=Isorhythm #4
TTITLE4=Burasi Mustur
TTITLE5=In ferne Himmel
TTITLE6=Djabaram
TTITLE7=Beauty Of The Flower
TTITLE8=Seeking For Solid Ground/ Isorhythm #12
TTITLE9=Bima Sakti/ Isorhythm #25
EXTD=YEAR: 2010
EXTT0=
EXTT1=
EXTT2=
EXTT3=
EXTT4=
EXTT5=
EXTT6=
EXTT7=
EXTT8=
EXTT9=
PLAYORDER=
